<svg width="21" height="21" viewBox="0 0 21 21" fill="none" xmlns="http://www.w3.org/2000/svg">
<path d="M14.6713 13.7034C14.5007 13.5321 14.2961 13.4175 14.0976 13.3762C13.9005 13.3352 13.6895 13.3644 13.5418 13.5127C13.3942 13.661 13.3652 13.873 13.406 14.0709C13.447 14.2704 13.5611 14.4759 13.7317 14.6473L18.6124 19.5499C18.783 19.7213 18.9876 19.8359 19.1861 19.8772C19.3832 19.9181 19.5943 19.889 19.7419 19.7407C19.8895 19.5924 19.9185 19.3804 19.8778 19.1824C19.8367 18.983 19.7226 18.7775 19.552 18.6061L14.6713 13.7034Z" fill="#000000" stroke="#000000" stroke-width="0.3" stroke-linecap="round" stroke-linejoin="round"/>
<path d="M7.76666 2.89688C5.38371 3.53827 3.52241 5.40796 2.88389 7.80165C2.24538 10.1953 2.92667 12.7494 4.67111 14.5017C6.41555 16.254 8.95814 16.9384 11.3411 16.297C13.724 15.6556 15.5853 13.7859 16.2239 11.3922C16.8624 8.9985 16.1811 6.44446 14.4366 4.69215C12.6922 2.93985 10.1496 2.2555 7.76666 2.89688ZM4.16742 8.14712C4.68306 6.21406 6.18618 4.70416 8.11058 4.18619C10.035 3.66823 12.0883 4.22089 13.497 5.63599C14.9058 7.0511 15.456 9.11366 14.9403 11.0467C14.4247 12.9798 12.9216 14.4897 10.9972 15.0077C9.07278 15.5256 7.01947 14.973 5.61072 13.5579C4.20196 12.1428 3.65178 10.0802 4.16742 8.14712Z" fill="#000000" stroke="#000000" stroke-width="0.3" stroke-linecap="round" stroke-linejoin="round"/>
</svg>
